<?xml version="1.0" encoding="UTF-8"?>
<!DOCTYPE svg PUBLIC "-//W3C//DTD SVG 1.1//EN" "http://www.w3.org/Graphics/SVG/1.1/DTD/svg11.dtd">
<!-- Creator: CorelDRAW (OEM Version) -->
<svg xmlns="http://www.w3.org/2000/svg" xml:space="preserve" width="8.5in" height="11in" version="1.1" style="shape-rendering:geometricPrecision; text-rendering:geometricPrecision; image-rendering:optimizeQuality; fill-rule:evenodd; clip-rule:evenodd"
viewBox="0 0 8500 11000"
 xmlns:xlink="http://www.w3.org/1999/xlink"
 xmlns:xodm="http://www.corel.com/coreldraw/odm/2003">
 <defs>
  <style type="text/css">
   <![CDATA[
    .str0 {stroke:#373435;stroke-width:6.94;stroke-miterlimit:2.613}
    .fil0 {fill:#373435}
    .fil1 {fill:#373435;fill-rule:nonzero}
   ]]>
  </style>
 </defs>
 <g id="Layer_x0020_1">
  <metadata id="CorelCorpID_0Corel-Layer"/>
  <g id="_1620434174704">
   <path class="fil0" d="M3083.01 6807.06l0.36 29.21c168.06,0.23 140.41,115.64 140.43,296.85l0.02 629.89c-0.01,51.69 7.18,105.09 -20.22,141.07 -11.76,15.43 -25.04,28.87 -45.02,36.78 -18.79,7.47 -16.98,4.8 -37.12,7.08l-38.38 7.73 0.13 31.16 454.59 0.84c38.36,-7.96 19.06,14.48 24.8,-24.59 -5.67,-32.34 -140.93,11.27 -140.93,-125.98l1.07 -453.48c506.67,-76.88 196.63,431.14 423.87,580.79 48.16,31.72 246.36,70.32 257.07,-8.74 -51.55,-26.63 -130.39,58.51 -147.57,-100.55 -23.06,-213.56 49.79,-395.19 -292.39,-487.82 81.72,-31.86 193.75,-30.35 277.68,-133.42 74.02,-90.9 65.63,-232.92 -2.57,-317.51 -133.14,-165.16 -532.47,-117.61 -787.57,-120.75 -30.58,-0.38 -50.32,-3.67 -68.24,11.43zm338.67 523.63c63.7,18.14 220.35,0.85 270.67,-26.99 132.75,-73.44 122.78,-363.49 5.48,-435.24 -52.27,-31.98 -210.35,-43.83 -276.41,-28.19l0.25 490.43z"/>
   <path class="fil0" d="M6183.57 6834.81c152.02,15.99 139.42,71.03 139.43,216.8l-0.28 711.4c0.13,48.85 11.5,165.76 -83.8,182.26 -59.92,10.37 -56.99,-19.91 -57.04,42.13l274.81 0.41c60.88,1.42 60.84,12.21 61.15,-39.72 -114.13,-0.07 -141.43,-43.87 -140.91,-155.35l0.17 -902.85c29.07,33.28 65.77,95.65 90.69,135.44 183.28,292.59 417.04,628.69 590.07,914.17 27.24,44.96 16.82,48.63 74.74,47.55l0.23 -957.66c0.3,-119.8 1.48,-191.72 133.4,-192.29 0.37,-57.42 -4.49,-42 -157.7,-41.68 -41.53,0.09 -128.87,-6.26 -162.57,4.24l-2.74 29.62c2.25,1.04 5.22,-0.19 6.28,2.19 4.72,10.42 2.42,1.5 12.15,3.69 144.33,32.57 115.85,80.91 115.63,312.8 -0.16,148.96 3.21,302.8 -0.61,451.15 -38.33,-37.8 -482.5,-756.79 -526.57,-803.36l-363.87 0.17 -2.65 38.91z"/>
   <path class="fil0" d="M1975.35 7950.69l0.2 33.58 315.69 3.05c0.16,-80.42 -5.44,-8.2 -73.54,-68.53 -26.06,-23.08 -41.34,-52.96 -32.52,-99.59 6.08,-32.05 57.61,-185.83 73.36,-215.1l341.9 -0.55c13.43,20.67 64.31,173.17 73.16,207.7 11.35,44.32 -3.54,83.5 -26.76,106.76 -62.51,62.64 -80.63,-15.78 -80.95,69.36l422.28 -0.8c0.09,-0.02 1.09,7.56 24.19,-8.67 -1.47,-68.11 -65.45,5.91 -108.72,-100.67l-157.87 -464.35c-17.98,-52.59 -191.11,-585.35 -216.9,-616.41l-37.05 -0.34c-25.95,38.59 -90.46,246 -111.19,307.12l-267.89 769.67c-23.54,62.5 -63.92,70.06 -137.4,77.76zm292.94 -387.78l320.81 2.28c-13.16,-64.59 -138.77,-448.56 -163.7,-485.67l-157.12 483.39z"/>
   <path class="fil0" d="M5396.92 7987.34c-0.18,-81.6 -8.44,-7.11 -74.63,-68.36 -25.01,-23.15 -39.83,-57.32 -31.26,-98.81 6.08,-29.44 24.39,-77.3 34.63,-106.06l41.41 -109.52 345.52 -0.37c22.72,106.93 148.61,293.84 -8.81,339.19 -40,11.53 -31.49,-5 -31.64,41.86l399.6 3.06c4.41,-0.02 25.44,-1.18 28.71,-2.34 22.71,-8.09 8.81,5.88 18.96,-15.48 -5.85,-38.21 9.67,-11.32 -23.98,-24.54 -14.72,-5.79 -18.83,-1.83 -38.69,-13 -54.52,-30.64 -71.06,-132.43 -99.65,-211.22l-312.79 -911c-0.9,-1.65 -2.3,-3.64 -3.18,-5.09l-44.34 -9.37c-21.25,31.43 -228.19,648.39 -262.22,741.88 -24.61,67.59 -108.94,337.68 -134.46,369.38 -22.95,28.51 -45.81,33.91 -86.16,39.59 -15.65,2.2 -48.98,-5.52 -30.19,28.19 8.55,15.34 11.19,13.68 60.78,12.56 83.64,-1.9 168.6,-0.42 252.39,-0.54zm-21.59 -424.64l318.71 1.67c-10.53,-46.15 -149.77,-465.4 -162.79,-483.54l-155.93 481.87z"/>
   <path class="fil0" d="M4233.27 7154.01c33.84,-0.89 16.37,21.82 40.94,-68.94 76.91,-284.06 171.72,-248.48 554.95,-248.06 -18.45,43.07 -56.67,97.83 -83.53,141.58l-513.15 850c-27.29,46.48 -71.07,91.24 -71.07,155.98l863.73 2.69 27.26 -280.84c1.39,-13.06 4.64,-32.82 5.61,-47.15 2.32,-34.22 0.28,-35.72 -9.6,-48.43 -35.94,13.83 -24.22,77.93 -67.5,181.08 -26.42,62.93 -60.19,105.03 -122.4,129.28 -85.87,33.5 -373.13,37.01 -474.63,24.51 53.57,-94.41 116.43,-188.48 170.48,-284.13 71.24,-126.07 507.69,-824.96 519.83,-865.57l-807.47 -0.07c-13.28,38.26 -43.89,337.12 -33.46,358.08z"/>
   <path class="fil0" d="M1958.11 6829.22c35.61,21.44 146.17,28.22 95.17,176.4 -27.64,80.31 -51.78,153.07 -78.02,233.17 -51.89,158.34 -97.7,309.68 -150.94,465.27 -20.13,-26.42 -137.59,-400.76 -157.21,-464.89 -24.32,-79.56 -50.82,-155.05 -77.58,-233.53 -24.23,-71.06 -14.73,-134.33 52.59,-159.46 45.76,-17.09 47.3,6.19 53.09,-31.7 -4.17,-32.24 -84.17,-18.56 -107.45,-18.41 -82.14,0.54 -301.99,-5.55 -354,2.83l0.55 30.39c40.19,26.11 92.67,-5.72 127.05,78.45l355.49 1059.55c13.98,42.18 34.39,50.18 52.18,6.48 43.22,-106.12 158.9,-464.12 203.37,-589.27 37.13,-104.5 73.5,-208.87 108.72,-313.85 66.11,-197.08 54.72,-221.84 192.02,-237.43l0.53 -36.34 -311.76 -0.66 -3.79 33z"/>
   <path class="fil0" d="M4361.74 5450.64c2.9,-14.41 9.39,-16.76 22.26,-13.21 13.1,3.61 19.44,8.67 15.06,21.75 -7.88,23.51 -41.62,12.83 -37.32,-8.54zm45.69 -156.7c20.52,7.28 23.87,10.48 46.6,13.43 0.17,0.82 0.76,1.2 0.49,2.46l-7.06 28.39c-4.22,13.22 -26.18,94.66 -35.17,99.92 -11.71,0.26 -39.39,-8.37 -48.76,-15.47 -0.48,-0.59 -0.52,-2.47 -0.75,-2.13 -0.24,0.35 -0.53,-1.69 -0.5,-2.24 0.78,-14.81 38.21,-122.84 41.11,-127.8l4.04 3.43zm-97.44 -133.69c13.92,-37.66 28.29,-69.2 59.54,-80.59 -9.36,20.24 -12.73,27.32 -27.35,42.44 -5.52,5.71 -10.92,10.74 -15.65,16.31l-16.54 21.85zm-5.74 -46.28c10.03,-92.15 110.29,-171.54 194.85,-178.41 -20.25,66.19 -37.67,133.09 -60.66,200.04 -16.25,47.3 -12.94,46.24 -42.62,80.37 -39.94,45.93 1.37,61.65 -0.07,74.19l-11.21 35.49c-35.46,-21.07 -76.94,-83.45 -65.25,-129.3 8.6,-33.71 27.35,-51.38 45.73,-72.16 11.41,-12.9 12.79,-22.45 21.44,-36.96 9.18,-15.4 18.86,-17.11 27.78,-26.34 -47,-13.57 -89.32,13 -109.98,53.07zm292.25 -217.11c-24.61,78.68 -58.63,154.52 -82.1,237.39 -15.05,53.15 -23.93,63.07 -18.85,113.76 4.81,48.03 -21.98,60.11 -65.86,45.03 -46.02,-15.81 -52.66,-42.18 -21.89,-76.99 29.1,-32.93 32.97,-58.46 48.07,-103.48 27.1,-80.85 44.67,-159.24 68.43,-239.78l72.2 24.07zm-45.41 -82c1.96,0.15 53.39,15.62 54.94,17.31 7.05,7.63 -2.82,15.79 -7.76,22.37 -17.58,23.46 -1.67,23.39 -54.17,6.96 3.36,-16.74 -2.29,-34.76 6.98,-46.65zm1.49 -30.04c16.66,-16.35 64.72,0.68 72.19,19.3 -8,13.22 -21.37,10.13 -38.74,4.89 -17.47,-5.26 -30.04,-11.5 -33.44,-24.19zm78.26 12.34c-0.38,-0.78 -1.91,-3.35 -2.21,-3.91 -0.22,-0.42 -1.06,-0.99 -1,-2.01 0.07,-1.01 -0.78,-1.3 -0.95,-2.02 10.8,-8.87 13.69,-6.41 30.15,-15.79l27.16 -102.05c10.58,14.27 16.08,29.11 27.45,42.81 -7.92,6.67 -11.15,4.6 -14.15,17.11 12.21,13.03 14.01,2.36 22.87,19.33 21.65,41.43 67.13,129.34 67.81,172.12 -24.4,3.74 -12.2,4.07 -32.25,-10.19 -26.31,18.99 -112.89,42.71 -163.63,22.28l13.2 -35.06c-4.91,-18.56 -14.23,-14.24 4.21,-37.48 13.85,-17.47 16.09,-22.9 7.75,-41.06 13.17,-8.72 22.36,-6.16 13.59,-24.09zm-68.73 -60.83c33.6,-78.75 45.89,-117.33 64.56,-201.35 31.2,12.95 51.29,20.12 84.94,27.04 -28.43,72.62 -44.43,127.62 -63.75,202.26l-85.75 -27.95zm131.49 -200.14c15.07,0.95 7.27,0.17 7.37,7 -8.59,2.54 -13.31,-0.85 -23.36,-5.02 4.06,-0.89 10.87,-2.3 15.99,-1.98zm-43.62 -18.54l22.93 19.66 -26.91 -8.33 3.98 -11.33zm311.27 -935.41c23.61,-74.35 20.78,-72.98 48.49,-58.95 0.25,22.88 -59.59,213.53 -70.55,251.75 -58.85,205.19 -120.32,420.61 -173.28,627.01 -10.17,39.65 -17.49,82.83 -28.24,121.02 -9.94,2.5 -48.47,6.65 -58.96,3.14 -9.95,-3.33 -39.84,-28.32 -45.94,-36.31 12.44,-35.5 30.59,-73.39 44.42,-109.61l123.28 -338.38c53.55,-151.76 111.11,-306.37 160.79,-459.68zm-337.28 790.73c11.51,-36.48 38.51,-76.01 68.31,-97.91 9.73,-7.15 3.81,-4.98 14.74,-7.05l-72.07 188.02c-0.55,0.83 -1.11,1.53 -1.67,2.26l-6.42 6.29c-3.94,-29.11 -16.24,-49.35 -2.9,-91.62zm-332.39 -219.15c23.92,-5.94 54.71,23.41 54.36,24.42l-4.76 -0.19c-11.81,-12.77 -31.32,-17.01 -49.6,-24.23zm-28.52 -323.48c-8.69,5.86 -9.94,6.57 -15.91,19.7 -28.45,-12.11 -82.24,-29.91 -101.83,-11.57 9.71,34.04 50.93,16.57 78.05,35.23l-4.2 23.59c27.39,10.35 50.47,1.69 74.52,26.94 11.52,12.09 26.59,37.76 36.43,53.25 22.77,35.87 40.83,72.22 54.68,113.8 18.54,55.68 69.99,195.67 101.28,231.29 -20.8,12.78 -53.67,5.81 -68.74,-12.07 -28.25,-33.53 -20.94,-137.46 -93.04,-170.82 -29.44,-13.62 -100.62,-14.11 -108.5,61.28 -3.22,30.78 12.6,40.02 24.33,59.47 17.58,29.13 16.26,62.23 32.96,52.39 18.95,-11.17 -7.49,-45.11 -13.04,-55.51 -8,-14.99 -26.53,-36.7 -15.09,-59.98 21.6,-43.94 85.6,-21.82 107.95,28.58 8.32,18.76 12.19,37.05 21.32,56.33 7.36,15.56 19.42,37.36 32.83,52.88 12.09,14 30.64,35.17 52.24,42.48 34.77,11.77 43.83,-4.62 63.23,-10.87 1.6,13.91 -12.76,29.22 -0.58,41.2 10.76,10.59 16,5.18 22.94,9.74 13.2,8.69 2.39,3.98 -0.72,24.6 16.15,21.28 78.33,68.85 86.97,67.19 4.77,-0.91 0.15,-3.41 9.24,-0.73 3.35,8.89 2.27,5.67 -1.59,17.94 -0.81,0.09 -1.81,-0.7 -2.46,0.03l-19.19 -6.93c-21.17,142.65 -58.91,183.51 -67.13,216.74 -4.26,17.2 7.18,13.18 11.23,32 -0.61,0.44 -1.42,0.22 -1.95,1.09 -0.53,0.87 -1.55,0.85 -1.97,1.07 -16.7,8.79 -17.16,12.23 -7.3,28.39 -27.58,17.89 -13.79,24.23 -17.58,52.25 -2.93,21.65 -7.82,7.5 -16.49,20.81 -4.31,6.61 -8.38,29.19 -10.92,38.35 -33.28,-2.57 -58.52,17.27 -89.09,23.37 20.23,-37.38 50.93,-71.55 25.46,-108.35 -11.23,-16.24 -33.93,-22.41 -44.55,-5.97 -16.77,25.96 7.37,29.61 22.74,43.71 7.04,49.22 -32.04,83.86 -58.26,110.22 -30.26,30.41 -54.32,55.02 -71.54,103.09 -24.55,68.52 -16.4,148.96 25.84,204.67 6.62,8.72 11.48,11.43 18.29,20.31 -28.49,4.16 -40.91,-0.44 -72.35,8.62 -112.96,32.53 -162.94,147.1 -98.62,230.98 15.1,19.69 46.68,36.77 72.93,30 22.3,-5.75 36.05,-43.56 24.9,-66.29 -12.71,-25.91 -56.06,-29.4 -53.69,6.06l15.08 6.42c5.21,-4.41 1.81,-2.33 6.42,-6.29l5.3 -4.3c0.41,-0.31 1.22,-1.01 1.89,-1.42 38.91,35.66 -23.73,73.08 -63.47,11.76 -18.63,-28.75 -24.72,-81.35 4.26,-124.82 9.93,13.81 7.49,25.54 28.44,34.98l-5.42 -18.39 14.25 -0.75c7.74,-0.18 10.31,-0.93 15.73,-2.06 -3.86,-5.9 1.02,-0.39 -5.7,-5.23 -5.78,-4.16 -12.94,-6.48 -15.59,-13.53 -12.75,-33.86 72.93,-71.93 107.99,-73.98 31.64,-1.85 39.67,7.74 67.43,15.19 -10.05,31.73 -25.24,67.02 -30.74,99.55l12.09 7.99c-12.06,10.23 -9.4,22.44 -4.71,31.72 -12.56,0.79 -34.04,127.72 -43.79,158.44l37.44 7.14 39.13 -155.24c1.76,-10 14.57,-9.45 10.67,-30.12 10.04,-4.12 4.67,0.28 15.13,-1.48l44.14 -138.25c18.97,-7.1 48.43,-4.44 41.46,-60.12 -5.46,-43.61 -0.06,-47.49 13.35,-93.78 20.38,-70.33 45.62,-136.09 67.91,-204.26 29.75,11.08 52.57,37.36 57.56,60.03 -8.77,18.99 -20.6,10.04 -17.26,39.43 36.11,25.72 76.67,-23.25 1.29,-87.31 42.18,3.07 63.7,5.17 103.07,1.62l5.27 9.86c0.52,0.5 1.24,1.06 1.82,1.5 3.96,3.03 2.3,1.84 7.22,3.55 30.56,-23.78 -12.49,4.04 19.65,-13.7 15.43,-8.52 1.18,-9.76 25.04,-19.46 18.06,28.12 4.31,226.35 -82.25,290.07 -107.52,79.15 -154.68,-21.16 -117.54,-73.15 12.81,-17.93 53.14,-24.23 63.47,2.72 -13.96,3.5 -22.3,-2.96 -30.7,13.93 -7.05,14.19 0.35,24.75 14.74,28.74 26.61,7.37 52.06,-21.59 45.43,-47.5 -13.98,-54.53 -94.13,-46.02 -121.12,-1.09 -40.3,67.07 20.62,165.44 115.46,129.43 22.82,-8.67 37.71,-28.09 58.52,-40.15 -19.65,51.12 -61.83,87.47 -102.89,117.24 -65.94,47.8 -123.03,18.58 -157.24,16.01l-6.08 11.64c34.87,14.1 62.2,19.51 96.59,15.3 13.79,-1.69 28.89,-6.2 40.26,-10.41 12.75,-4.72 29.85,-15.18 39.04,-16.84 -24.83,62.42 -63.43,31.15 -97.91,70.24 -54.07,61.31 -8.57,113.79 14.9,103.87 0.74,-0.48 1.96,-2.28 1.94,-1.8 -0.02,0.46 1.46,-1.38 1.76,-1.89 1.87,-3.28 2.18,-1.94 2.96,-6.6 3.28,-19.46 -33.51,-60.11 15.83,-81.74 18.91,-8.29 34.07,1.69 48.07,-9.37 11.47,-9.06 24.67,-32.82 27.31,-50.88 7.11,-48.52 32.69,-55.25 59.61,-88.04 26.41,-32.18 37.45,-63.06 56.58,-100.49 3.92,34.7 23.71,75.4 10.51,111.3 26.08,13.19 40.04,44.04 42.96,73.43 4.36,43.78 -9.26,65.18 -28.48,101.83 26.33,-9.57 60.91,-57.94 58.04,-97.86 -1.98,-27.41 -9.36,-52.6 -16.87,-78.12 -6.28,-21.33 3.23,-9.28 0.35,-24.11 -9.47,-20.61 -23.94,-1.49 -40.85,-72.72 -7.01,-29.52 0.51,-63.69 6.49,-96.98 13.6,-75.66 15.64,-125.65 13.24,-195.13 33.51,-23.13 93.78,-36.25 97.93,-87.14 1.32,-16.27 -6.32,-33.97 -19.85,-39.96 -11.98,31.16 -11.26,41.61 -32.84,66.08 -11.6,13.15 -38.15,30.16 -49.26,33.92 -2.34,-20.33 -9.43,-35.33 -15.81,-51.81 -7.42,-19.15 -11.84,-32.2 -18.81,-50.46l-17.98 -50.88c-16.78,-43.93 0.32,-32.06 -3.17,-58.49 -14.15,-11.22 -10.28,1.59 -25.75,8.26 -14.74,-18.62 -22.02,-44.31 -31.62,-65.37 -12.61,-27.68 9.94,-45 21.52,-85.61l-19.7 -3.47 4.81 -15.26 37.47 -3.36c7.07,-63.51 38.63,-179.07 58.65,-242.88 108.72,45.75 111.22,196.14 36.74,208.02 -29.09,4.64 -6.19,-17.73 -4.72,-30.84 1.11,-9.87 -6.55,-20.84 -19.41,-21.2 -24.59,-0.69 -24.55,37.06 -16.99,52.08 25.52,50.78 78.29,18.98 98.73,-19.38 33.71,-63.24 14.56,-134.4 -31.54,-176.97 -16.66,-15.39 -37.14,-22.13 -53.17,-35.37 -0.45,-0.37 -1.27,-1.06 -1.77,-1.7l51.35 -192.37 42.05 -6.35c-15.78,80.33 -0.42,134.21 30.01,181.06 60.94,93.85 196.13,78.54 238.01,0.05 37.86,-70.95 -18.53,-122.96 9.5,-197.5 21.45,-57.06 72.8,-68.07 74.95,-30.18 0.64,11.28 -3.81,1.51 1.64,12.53l10.65 2.16c27.02,-61.89 -64.53,-79.59 -120.28,5.35 -15.92,24.25 -15.85,48.79 -38.2,56.17 -22.03,7.28 -87.73,42.66 -81.81,90.17 2.16,17.34 26,39.83 47.8,30.01 8.69,-3.91 16.89,-18.35 11.24,-29.41 -6.04,-11.84 -19.4,-7.58 -30.53,-8.16 20.07,-53.03 91.43,-48.72 94.19,16.13 2.77,65.06 -51.33,84.04 -96.86,85.72 -119.46,4.41 -147.72,-140.83 -125.19,-217.82 47.31,-7.5 98.85,-31.04 132.88,-50.29 141.3,-79.91 220.79,-224.07 179.07,-387.08 -2.65,-10.34 -2.57,-11.6 -6.32,-18.07 4.04,-2.42 3.78,-3.36 5.76,1.44l2.5 5.89c23.7,54.31 37.46,108.98 19.98,170.55l25.28 6.24c6.74,31.84 41.59,85.56 73.84,115.6 18.22,16.98 59.41,28.52 65,-0.26 2.31,-11.86 -4.65,-24.31 -16,-30.17 -17.2,-8.88 -20.03,0.58 -30.27,9.6 -22.64,-24.24 -39.32,-67.23 -49.06,-103.39 -5.87,-21.78 3.02,-11.3 3.94,-28.2 0.38,-7.06 -30.06,-73.26 -34.56,-83.43 -31.7,-71.76 -51.58,-139.41 -130.82,-196.74l2.57 -18.65c-1.3,-11.47 -33.8,-11.67 -82.2,-48.71 -6.81,-5.21 -13.92,-13.33 -22.89,-16.66 -6.62,-2.46 -2.57,-2.39 -7.54,-0.81 0.07,-33.05 -4.12,-60.61 2.2,-95.96l-45.84 69.75 -71.18 -24.98c24.4,-40.78 41.44,-65.63 58.87,-114.85 9.59,-27.1 29.96,-113.85 29.83,-137.02l-13.34 12.8c-18.03,-25.3 -15.41,-42.03 -48.43,-69.31 -87.86,-72.57 -224.84,-14.2 -214.78,80.24 8.06,75.73 91.3,98.52 136.7,59.98 25.32,-21.5 33.52,-64.28 15.35,-83.48 -13.58,-14.35 -34.85,-17.3 -43.81,-3.67 -13.77,20.94 -1.07,30.2 10.33,39.68 -13.47,103.7 -167.42,-2.81 -51.28,-86.11 86.22,-61.84 188.05,38.16 176.91,76.07 -5.41,2.21 -13.31,1.82 -19.97,2.22 1.59,59.54 5.54,95.74 -27,153.52 -43.54,77.3 -55.49,55.15 -120.6,59.7 -193.13,13.5 -373.51,122.18 -436.31,321.94 -37.08,117.96 -35.74,220.09 -37.79,325.09 -15.43,-17.38 -26.94,-48.44 -49.09,-71.52 -14.68,-15.3 -17.68,-15.11 -29.12,-33.07 -18.64,-29.23 -6.5,-31.48 -23.34,-39.84zm534.67 186.17c-14.46,-6.37 -44.26,-34.58 -53.54,-44.59 -46.72,-50.43 -77.35,-110.07 -59.26,-182.07 27.46,-109.27 125.23,-151.66 230.2,-108.01l-57.57 165.44c-30.72,-9.37 -43.87,-28.34 -35.81,-58.66 13.18,-5.07 22.97,-1.79 30.32,-13.7 7.09,-11.49 4.65,-24.79 -3.25,-31.36 -34.09,-28.35 -77.6,31.25 -47.54,92.81 18.86,38.61 45.02,30.37 44.13,45.35l-47.68 134.78zm-205.89 -579.71l98.66 -51.2c31.15,-14.32 141.22,-36.95 189.24,-29.53 -14.48,18.42 -59.36,39.68 -77.97,49.14 -45.05,22.91 -129.32,36.46 -180.29,47.12 -45.32,9.48 -80.27,24.82 -86.08,25.99l56.44 -41.52zm355.54 595.98c11.37,-84.03 82.33,-134.69 140.68,-206.5 56.32,-69.31 105.95,-124.67 122.02,-224.85 17.57,32.25 24.61,89.91 17.54,138.6 -20.69,142.46 -161.69,274.84 -280.24,292.75zm84.41 -586.98c0.12,-0.01 2.27,-5.51 10.26,2.59 4.63,4.7 3.03,4.82 3.2,11.37 -7.56,6.45 -8.1,5.74 -22.44,3.94l8.98 -17.9zm-44.66 0.68c5.83,-14.46 5.06,-13.42 21.26,-11.38l-3.62 23.83 -17.65 -12.44zm-21.91 278.26c41.19,40.66 6.21,125.44 -36.71,129.77 8.84,-42 94.19,-321.97 93.47,-330.8 -1.44,-17.75 3.76,17.93 -1.96,-6.32l-1.17 -4.28c-0.43,-6.87 4.79,-14.52 8.46,-21.43 20.44,-38.48 24.36,-16.13 26.25,-32.46 -2.92,-13.03 -6.33,-10.37 -15.69,-20.81 6.23,-10.5 20.57,-22.63 31.61,-28.04 30.67,30.52 36.52,43.87 39.36,75.93 2.28,25.72 23.76,21.91 37.56,8.85 38.45,30.76 47.12,91.53 35.66,140.94 -18.53,79.9 -122.15,192.9 -181.46,254.03 -41.64,42.92 -60.54,84.88 -78.78,149.37 -15.66,-0.98 -32.13,3.36 -47.17,3.8l39.96 -140.66c37.51,-7.87 71.31,-33.7 86.61,-85.8 13.63,-46.41 1.98,-99.08 -26.74,-120.09l-9.29 28.02zm-562.66 95.19c-18.2,-55.4 21.56,-174.96 53.7,-231.02 39.64,-69.15 99.09,-102.82 163.49,-112.32 84.25,-12.44 118.24,-19.45 196.4,-48.28 156.2,-57.62 84.13,-93.82 191.72,-50.52 -17.17,26.26 0.46,21.06 -1.32,50.71 -13.92,3.24 -15.31,-2.13 -24.51,8.1 -4.26,21.8 4.42,2.48 4.73,23.87 0.45,30.12 -14.39,55.51 -23.11,81.28 -11.48,33.93 -25.28,80.15 -39.56,112.82 -102.46,-41.96 -232.62,-7.94 -271.65,121.82 -22.33,74.26 -2.25,115.14 23.41,158.91 45.44,77.52 97.51,95.83 111.09,111.85 -16.59,43.98 -50.26,147.88 -65.3,182.52 -11.15,25.65 -68.9,15.55 -108.64,92.42 -22.64,43.78 -21.09,68.73 -26.33,111.25 -5.17,-3.19 -4.3,-1.61 -7.21,-7.17 -2.4,-4.59 -0.62,-1.58 -1.8,-6l-0.62 -4.11c-33.57,7.39 1.28,-27.09 -27.82,-43.95 -9.15,-5.3 -8.46,-1.16 -13.15,-10.12 -7.51,-14.37 9.46,-26.11 14.99,-53.31 9.68,-47.65 -21.75,-78.74 -42.24,-113.24 -19.72,-33.22 -43.44,-65.79 -49.79,-108.96 -5.91,-40.22 8.38,-109.01 48.9,-113.69 22.11,19.94 -2.36,18.79 -5.88,41 44.43,56.75 91.57,-58.74 4.65,-63.74 -19.37,-1.11 -20.9,3.28 -32.11,12.59 -31.47,26.13 -47.4,51.6 -47.38,96.99 0.02,62 18.38,81.64 45.41,123.34 11.84,18.27 29.45,35.8 34.58,56.7 5.15,20.98 5.12,48.19 -2.89,72.44l-60.74 -126.04c-16.84,-35.31 -28.44,-93.17 -35.11,-140.87 -8.08,-57.82 -1.37,-106.83 18.95,-168.81 20.85,-63.63 48.31,-95.49 84.04,-138.54 6.6,6.71 9.44,14.75 12.33,23.26 8.33,-4.3 11.66,-10.83 19.8,-18.34 25.74,-23.78 53.74,-22.33 65.3,-32.04 9.26,-7.79 8.63,-12.64 18.71,-19.34 8.05,-5.35 12.78,-8.28 19.92,-12.78 28.64,-18.03 32.83,-10.06 43.44,-8.62 20.18,-26.47 43.06,-55.93 33.91,-97.36 -8.68,-39.25 -63.23,-50.79 -70.11,-11.36 17.83,31.44 26.48,12.82 43.82,11.19 16.93,34.02 -30.86,81.81 -71.36,99.53 -7.29,3.19 -55.37,15.02 -62.07,14.91 -20.18,-0.34 -50.8,-7.84 -72.65,-9.91 3.54,19.91 6.35,16.54 -10.13,31.46 -36.2,32.77 -60.31,63.8 -79.8,111.49z"/>
   <path class="fil1 str0" d="M4321.08 5609.97c-26.69,14.44 -23.62,42.31 1.88,54.28 12.41,5.83 35.57,-2.23 39.87,-15.12 2.71,-8.15 7.88,-26.34 5.8,-29.72 -6.93,-11.3 -34.66,-3.6 -47.56,-9.44z"/>
   <polygon class="fil1 str0" points="4382.94,5501.91 4398.9,5507.08 4383.65,5554.19 4367.7,5549.02 "/>
   <polygon class="fil1 str0" points="4406.43,5487.08 4428.33,5494.23 4398.96,5584.24 4377.05,5577.09 "/>
   <polygon class="fil0" points="3068,3203.6 3305.77,3213.05 4215.73,5941.88 4115.15,6343.85 "/>
   <polygon class="fil0" points="4351.02,5652.05 4311.01,5653.13 4131.07,6339.56 4243.19,6253.34 4182.63,6267.08 "/>
  </g>
 </g>
</svg>
